<svg xmlns="http://www.w3.org/2000/svg" viewBox="0 0 900 1200" role="img" aria-labelledby="title desc">
  <title id="title">Side-action running image</title>
  <desc id="desc">A black and white side-action running scene with motion blur.</desc>
  <defs><linearGradient id="g" y1="0" y2="1"><stop stop-color="#606060"/><stop offset="1" stop-color="#e7e7e7"/></linearGradient><filter id="blur"><feGaussianBlur stdDeviation="5"/></filter></defs>
  <rect width="900" height="1200" fill="url(#g)"/>
  <g opacity=".22" filter="url(#blur)" stroke="#222" stroke-width="18"><path d="M-60 270h1020M-40 340h980M-80 420h930M-90 830h1100M-30 920h1060"/></g>
  <g transform="translate(260 258)" fill="#111">
    <circle cx="154" cy="92" r="58"/>
    <path d="M116 160c94-26 160 12 184 112l32 138-82 18-36-126-120 28c-88 20-145-50-112-128 16-36 55-62 134-42z"/>
    <path d="M64 288l-30 180-86 126 76 42 100-132 44-164z"/>
    <path d="M222 410l132 148 18 172 86-8-6-196-142-172z"/>
    <path d="M42 228l-134 64 32 54 154-56z"/>
    <path d="M270 240l118 96 48-48-126-120z"/>
    <rect x="64" y="292" width="206" height="58" rx="28" fill="#f2f2f2"/>
  </g>
</svg>
